# Blender 4.0.1
# www.blender.org
mtllib heart_diamond.mtl
o Cylinder.010_Cylinder.019
v -0.126490 0.022763 -0.206855
v 0.108115 0.393185 0.046286
v -0.114746 0.016806 -0.209345
v -0.113598 0.009219 -0.198357
v 0.240769 0.333030 0.006738
v -0.105939 0.000304 -0.191915
v -0.113417 -0.001733 -0.180981
v 0.266644 0.278017 0.068420
v -0.114331 -0.008384 -0.169381
v -0.126055 -0.003678 -0.164907
v 0.149285 0.238321 0.252386
v -0.135006 -0.004169 -0.154944
v -0.144108 0.004524 -0.159549
v -0.021263 0.259245 0.393685
v -0.155853 0.010481 -0.157060
v -0.157001 0.018068 -0.168047
v -0.077976 0.398018 0.229321
v -0.164659 0.026982 -0.174489
v -0.157181 0.029020 -0.185423
v -0.054751 0.503862 0.035800
v -0.156267 0.035670 -0.197023
v -0.144544 0.030964 -0.201497
v 0.013509 0.492728 -0.016328
v -0.135592 0.031455 -0.211460
v 0.260393 0.310560 -0.240932
v 0.111678 0.365961 -0.177297
v 0.359670 0.235850 -0.222924
v 0.386796 0.145340 -0.105612
v 0.362265 0.078300 0.027030
v 0.289810 0.044935 0.154808
v 0.180463 0.050326 0.258268
v 0.026248 0.068161 0.387776
v -0.141759 0.103591 0.503211
v -0.214677 0.237461 0.363323
v -0.264710 0.363152 0.213086
v -0.291836 0.453661 0.095774
v -0.267305 0.520702 -0.036867
v -0.194850 0.554066 -0.164645
v -0.085503 0.548675 -0.268106
v 0.019467 0.479859 -0.265385
v 0.235362 0.359344 -0.109925
v 0.341339 0.248172 -0.040323
v 0.268984 0.173267 0.153959
v 0.060682 0.178507 0.359112
v -0.119057 0.304810 0.340870
v -0.164943 0.478190 0.109918
v -0.092589 0.553096 -0.084364
v 0.055623 0.485648 -0.128168
v -0.074976 0.048565 -0.219064
v -0.056920 0.014733 -0.183329
v -0.074126 -0.003079 -0.137130
v -0.116514 0.005563 -0.107529
v -0.159255 0.035597 -0.111867
v -0.177312 0.069430 -0.147602
v -0.160106 0.087242 -0.193802
v -0.117717 0.078600 -0.223402
v 0.105781 0.356777 -0.182792
v 0.253772 0.301395 -0.245716
v 0.352696 0.226971 -0.227806
v 0.379722 0.136794 -0.110925
v 0.355281 0.070000 0.021230
v 0.283093 0.036759 0.148538
v 0.174148 0.042130 0.251618
v 0.020488 0.059887 0.380682
v -0.146724 0.095371 0.495216
v -0.219553 0.228565 0.356319
v -0.269389 0.353805 0.206602
v -0.296415 0.443983 0.089721
v -0.271974 0.510777 -0.042433
v -0.199786 0.544018 -0.169741
v -0.090841 0.538648 -0.272822
v 0.013732 0.470072 -0.270078
vn -0.1420 0.5557 -0.8192
vn 0.3398 0.2321 -0.9114
vn 0.8008 -0.3702 -0.4708
vn 0.8042 -0.5769 -0.1428
vn 0.6770 -0.7086 0.1988
vn 0.4385 -0.7453 0.5022
vn 0.3797 -0.7408 0.5541
vn 0.2675 -0.7393 0.6180
vn -0.8624 0.0547 0.5033
vn -0.8922 0.1530 0.4250
vn -0.9088 0.2014 0.3655
vn -0.9122 0.4081 0.0376
vn -0.7849 0.5398 -0.3041
vn -0.5464 0.5765 -0.6075
vn 0.2279 0.3108 -0.9228
vn 0.6766 -0.0195 -0.7361
vn -0.4769 -0.7458 -0.4651
vn -0.0437 0.9375 0.3452
vn 0.4497 0.8755 0.1766
vn 0.6931 0.6574 0.2956
vn 0.6995 0.4613 0.5458
vn 0.6255 0.3327 0.7057
vn 0.4769 0.7458 0.4651
vn 0.6460 0.7376 0.1966
vn 0.3459 0.9014 0.2604
vn 0.1268 0.8638 0.4877
vn 0.0094 0.7656 0.6432
vn -0.1962 0.7651 0.6133
vn 0.2214 0.4407 0.8699
vn 0.6968 0.1376 0.7040
vn 0.8438 0.3138 0.4353
vn 0.7022 0.7091 0.0635
vn 0.5787 0.8106 -0.0895
vn 0.4225 0.9057 0.0351
vn 0.0275 0.9994 -0.0230
vn -0.1319 0.9748 0.1798
vn -0.2169 0.8868 0.4081
vn -0.2146 0.7487 0.6272
vn -0.3169 0.6728 0.6685
vn -0.2663 0.6233 0.7353
vn 0.5709 0.0349 0.8202
vn 0.6430 -0.0017 0.7659
vn 0.6857 0.1160 0.7186
vn 0.8451 0.1405 0.5159
vn 0.9301 0.2286 0.2875
vn 0.9278 0.3667 0.0684
vn 0.6121 0.7722 -0.1706
vn 0.2154 0.9279 -0.3044
vn 0.8370 0.4911 -0.2413
vn 0.5428 0.8209 -0.1776
vn 0.4763 -0.2601 -0.8399
vn -0.6877 -0.0215 -0.7257
vn -0.8634 -0.0485 -0.5022
vn -0.9136 -0.3968 0.0892
vn -0.9377 -0.3467 0.0221
vn -0.8410 -0.5348 0.0814
vn -0.1122 -0.9836 0.1409
vn -0.0780 -0.9822 0.1712
vn 0.0377 -0.9951 0.0917
vn 0.2618 -0.9286 -0.2630
vn 0.3071 -0.8710 -0.3834
vn 0.2554 -0.6326 -0.7312
vn 0.0506 -0.1696 -0.9842
vn -0.3608 0.3029 -0.8821
vn -0.5802 -0.0472 -0.8131
vn -0.2867 0.2761 -0.9174
vn -0.5766 -0.0479 -0.8156
vn -0.0423 -0.1043 -0.9936
vn -0.9185 -0.0992 -0.3828
vn -0.9571 -0.1456 -0.2506
vn -0.9151 -0.3939 0.0862
vn -0.9546 -0.2978 -0.0090
vn -0.2334 -0.9618 0.1430
vn -0.9011 -0.4293 0.0609
vn -0.0816 -0.9814 0.1736
vn -0.0178 -0.9931 0.1155
vn 0.2603 -0.9301 -0.2591
vn 0.2134 -0.9680 -0.1318
vn 0.2569 -0.6354 -0.7282
vn 0.3046 -0.7188 -0.6250
vn 0.5210 -0.3167 -0.7926
vn -0.9199 -0.1007 -0.3789
vt 0.254740 0.602238
vt 0.249443 0.596750
vt 0.332793 0.525963
vt 0.337689 0.531870
vt 0.389160 0.489840
vt 0.393855 0.495869
vt 0.529822 0.821211
vt 0.522388 0.818190
vt 0.560352 0.740168
vt 0.567646 0.743476
vt 0.605802 0.657809
vt 0.612929 0.661420
vt 0.651819 0.583652
vt 0.658777 0.587536
vt 0.691399 0.528986
vt 0.698211 0.533070
vt 0.741735 0.462398
vt 0.748374 0.466707
vt 0.788000 0.406287
vt 0.794301 0.411089
vt 0.555511 0.005561
vt 0.561198 0.000000
vt 0.642604 0.097896
vt 0.636459 0.102857
vt 0.722173 0.196809
vt 0.715747 0.201423
vt 0.780986 0.271417
vt 0.774343 0.275756
vt 0.832143 0.343620
vt 0.825312 0.347695
vt 0.867856 0.402429
vt 0.860894 0.406287
vt 0.837081 0.423612
vt 0.836337 0.416125
vt 0.926066 0.406287
vt 0.926480 0.413810
vt 0.999870 0.411728
vt 1.000000 0.419235
vt 0.464069 0.767873
vt 0.459955 0.774282
vt 0.393855 0.740550
vt 0.398489 0.734464
vt 0.227687 0.858675
vt 0.219124 0.860714
vt 0.215477 0.853208
vt 0.207875 0.849004
vt 0.210988 0.841292
vt 0.208801 0.833307
vt 0.216851 0.829906
vt 0.221359 0.822818
vt 0.229631 0.825721
vt 0.238194 0.823682
vt 0.241841 0.831188
vt 0.249443 0.835392
vt 0.246330 0.843104
vt 0.248517 0.851089
vt 0.240467 0.854490
vt 0.235959 0.861578
vt 0.450182 0.403010
vt 0.340061 0.402506
vt 0.356949 0.325709
vt 0.441419 0.305852
vt 0.228003 0.152767
vt 0.293571 0.115872
vt 0.267063 0.238088
vt 0.171099 0.156262
vt 0.190494 0.077075
vt 0.099846 0.274976
vt 0.089136 0.173729
vt 0.085821 0.410917
vt 0.048870 0.349216
vt 0.359420 0.272584
vt 0.231263 0.394793
vt 0.397508 0.210635
vt 0.152806 0.443978
vt 0.271345 0.474096
vt 0.003057 0.489840
vt 0.013918 0.239390
vt 0.086125 0.071086
vt 0.264961 0.000000
vt 0.358085 0.151290
vt 0.522388 0.234705
vt 0.504257 0.325598
vt 0.368394 0.455155
vt 0.699652 0.091451
vt 0.139319 0.489839
vt 0.000000 0.362818
vt 0.032049 0.148498
vt 0.167912 0.018941
vt 0.328003 0.050039
vt 0.467321 0.177061
vt 0.464069 0.522382
vt 0.966486 0.652753
vt 0.836337 0.851853
vt 0.931515 0.678894
vt 0.931515 0.877154
vt 0.557179 0.382661
vt 0.532454 0.394950
vt 0.527510 0.389496
vt 0.536542 0.357778
vt 0.249443 0.489840
vt 0.248208 0.804235
vt 0.213693 0.802465
vt 0.147315 0.573140
vt 0.059421 0.666028
vt 0.187945 0.823970
vt 0.000000 0.739826
vt 0.817981 0.785382
vt 0.836337 0.807668
vt 0.832419 0.815001
vt 0.801754 0.813149
vt 0.039721 1.000000
vt 0.186046 0.856153
vt 0.389087 0.780647
vt 0.393855 0.811207
vt 0.387242 0.816331
vt 1.000000 0.650471
vt 0.997211 0.677781
vt 0.989685 0.678805
vt 0.980864 0.678894
vt 0.535154 0.399701
vt 0.522388 0.382814
vt 0.828423 0.821211
vt 0.209110 0.880161
vt 0.456315 0.489840
vt 0.460283 0.491495
vt 0.572590 0.405903
vt 0.539970 0.406287
s 0
usemtl Diamond_pink.002
f 57/1/1 26/2/1 25/3/1 58/4/1
f 58/4/2 25/3/2 27/5/2 59/6/2
f 59/7/3 27/8/3 28/9/3 60/10/3
f 60/10/4 28/9/4 29/11/4 61/12/4
f 61/12/5 29/11/5 30/13/5 62/14/5
f 62/14/6 30/13/6 31/15/6 63/16/6
f 63/16/7 31/15/7 32/17/7 64/18/7
f 64/18/8 32/17/8 33/19/8 65/20/8
f 65/21/9 33/22/9 34/23/9 66/24/9
f 66/24/10 34/23/10 35/25/10 67/26/10
f 67/26/11 35/25/11 36/27/11 68/28/11
f 68/28/12 36/27/12 37/29/12 69/30/12
f 69/30/13 37/29/13 38/31/13 70/32/13
f 70/33/14 38/34/14 39/35/14 71/36/14
f 71/36/15 39/35/15 40/37/15 72/38/15
f 72/39/16 40/40/16 26/41/16 57/42/16
f 1/43/17 3/44/17 4/45/17 6/46/17 7/47/17 9/48/17 10/49/17 12/50/17 13/51/17 15/52/17 16/53/17 18/54/17 19/55/17 21/56/17 22/57/17 24/58/17
f 37/59/18 46/60/18 20/61/18 47/62/18
f 5/63/19 41/64/19 2/65/19
f 8/66/20 42/67/20 5/63/20
f 11/68/21 43/69/21 8/66/21
f 14/70/22 44/71/22 11/68/22
f 23/72/23 20/61/23 17/73/23 14/70/23 11/68/23 8/66/23 5/63/23 2/65/23
f 48/74/24 23/72/24 2/65/24
f 47/62/25 20/61/25 23/72/25
f 20/61/26 46/60/26 17/73/26
f 17/73/27 45/75/27 14/70/27
f 35/76/28 45/75/28 17/73/28 46/60/28
f 33/77/29 44/71/29 14/70/29 45/75/29
f 31/78/30 43/69/30 11/68/30 44/71/30
f 29/79/31 42/67/31 8/66/31 43/69/31
f 27/80/32 41/64/32 5/63/32 42/67/32
f 26/81/33 48/74/33 2/65/33 41/64/33
f 39/82/34 47/62/34 23/72/34 48/74/34
f 38/83/35 47/62/35 39/82/35
f 38/83/36 37/59/36 47/62/36
f 36/84/37 46/60/37 37/59/37
f 36/84/38 35/76/38 46/60/38
f 34/23/39 45/85/39 35/25/39
f 34/86/40 33/77/40 45/75/40
f 32/87/41 44/71/41 33/77/41
f 32/87/42 31/78/42 44/71/42
f 30/88/43 43/69/43 31/78/43
f 30/88/44 29/79/44 43/69/44
f 28/89/45 42/67/45 29/79/45
f 28/89/46 27/80/46 42/67/46
f 25/90/47 41/64/47 27/80/47
f 25/90/48 26/81/48 41/64/48
f 40/91/49 48/74/49 26/81/49
f 40/91/50 39/82/50 48/74/50
f 56/92/51 72/39/51 57/42/51
f 55/93/52 70/33/52 71/36/52
f 70/94/53 55/95/53 69/96/53
f 67/26/54 54/97/54 18/98/54 16/99/54
f 53/100/55 66/24/55 67/26/55
f 65/101/56 53/102/56 15/52/56 13/51/56
f 52/103/57 64/104/57 65/101/57
f 63/105/58 52/103/58 12/50/58 10/49/58
f 51/106/59 62/107/59 63/105/59
f 61/12/60 51/108/60 9/109/60 7/110/60
f 50/111/61 60/10/61 61/12/61
f 59/112/62 50/113/62 6/46/62 4/45/62
f 49/114/63 58/4/63 59/6/63
f 57/1/64 49/114/64 3/115/64 1/116/64
f 71/36/65 56/117/65 24/118/65 22/119/65
f 58/4/66 49/114/66 57/1/66
f 55/93/67 71/36/67 22/119/67 21/120/67
f 72/38/68 56/117/68 71/36/68
f 54/97/69 69/30/69 19/121/69 18/98/69
f 54/97/70 68/28/70 69/30/70
f 53/100/71 67/26/71 16/99/71 15/122/71
f 68/28/72 54/97/72 67/26/72
f 52/103/73 65/101/73 13/51/73 12/50/73
f 66/24/74 53/100/74 65/21/74
f 51/106/75 63/105/75 10/49/75 9/48/75
f 64/104/76 52/103/76 63/105/76
f 50/111/77 61/12/77 7/110/77 6/123/77
f 62/14/78 51/108/78 61/12/78
f 49/124/79 59/112/79 4/45/79 3/44/79
f 60/10/80 50/111/80 59/7/80
f 56/92/81 57/42/81 1/125/81 24/126/81
f 69/30/82 55/127/82 21/128/82 19/121/82
o leftWall
v -1.020000 1.590000 -1.040000
v -1.020000 1.590000 0.990000
v -1.010000 0.000000 0.990000
v -0.990000 -0.000000 -1.040000
vn 0.9999 0.0135 0.0057
vn 1.0000 0.0063 -0.0000
vn 0.9999 0.0116 0.0042
vn 0.9998 0.0189 0.0098
vt 0.000000 1.000000
s 1
usemtl leftWall.002
f 73/129/83 74/129/84 75/129/85
f 76/129/86 73/129/83 75/129/85
o rightWall
v 1.000000 1.590000 0.990000
v 1.000000 1.590000 -1.040000
v 1.000000 -0.000000 -1.040000
v 1.000000 0.000000 0.990000
vn -1.0000 -0.0000 -0.0000
vt 0.000000 1.000000
s 1
usemtl rightWall.002
f 77/130/87 78/130/87 79/130/87
f 80/130/87 77/130/87 79/130/87
o backWall
v 1.000000 1.590000 -1.040000
v -1.020000 1.590000 -1.040000
v -0.990000 -0.000000 -1.040000
v 1.000000 -0.000000 -1.040000
vn -0.0000 -0.0000 1.0000
vt 0.000000 1.000000
s 1
usemtl backWall.002
f 81/131/88 82/131/88 83/131/88
f 84/131/88 81/131/88 83/131/88
o ceiling
v 1.000000 1.590000 -1.040000
v 1.000000 1.590000 0.990000
v -1.020000 1.590000 0.990000
v -1.020000 1.590000 -1.040000
vn -0.0000 -1.0000 -0.0000
vt 0.000000 1.000000
s 1
usemtl ceiling.002
f 85/132/89 86/132/89 87/132/89
f 88/132/89 85/132/89 87/132/89
o floor
v 1.000000 -0.000000 -1.040000
v -0.990000 -0.000000 -1.040000
v -1.010000 0.000000 0.990000
v 1.000000 0.000000 0.990000
vn -0.0000 1.0000 -0.0000
vt 0.000000 1.000000
s 1
usemtl floor.002
f 89/133/90 90/133/90 91/133/90
f 92/133/90 89/133/90 91/133/90
