# Blender 4.0.1
# www.blender.org
mtllib heart_diamond2.mtl
o Cylinder.021_Cylinder.030
v 0.108352 0.205482 -0.225236
v 0.108352 0.588007 -0.209940
v 0.118018 0.205482 -0.228279
v 0.122701 0.205482 -0.219292
v 0.213726 0.588007 -0.253763
v 0.131688 0.205482 -0.214609
v 0.128644 0.205482 -0.204943
v 0.257374 0.588007 -0.204943
v 0.131688 0.205482 -0.195277
v 0.122701 0.205482 -0.190594
v 0.213726 0.588007 -0.043014
v 0.118018 0.205482 -0.181607
v 0.108352 0.205482 -0.184651
v 0.108352 0.588007 0.088105
v 0.098685 0.205482 -0.181607
v 0.094003 0.205482 -0.190594
v 0.002977 0.588007 -0.043014
v 0.085015 0.205482 -0.195277
v 0.088059 0.205482 -0.204943
v -0.040670 0.588007 -0.204943
v 0.085015 0.205482 -0.214609
v 0.094003 0.205482 -0.219292
v 0.002977 0.588007 -0.253763
v 0.098685 0.205482 -0.228279
v 0.220062 0.495301 -0.417916
v 0.108352 0.495301 -0.352833
v 0.314767 0.495301 -0.411359
v 0.378046 0.495301 -0.316654
v 0.400267 0.495301 -0.204943
v 0.378046 0.495301 -0.093232
v 0.314767 0.495301 0.001472
v 0.220063 0.495301 0.121472
v 0.108352 0.495301 0.230997
v -0.003359 0.495301 0.121472
v -0.098063 0.495301 0.001472
v -0.161343 0.495301 -0.093232
v -0.183563 0.495301 -0.204943
v -0.161343 0.495301 -0.316654
v -0.098063 0.495301 -0.411359
v -0.003359 0.495301 -0.417916
v 0.191692 0.559864 -0.336931
v 0.309553 0.559864 -0.288284
v 0.309553 0.559864 -0.121603
v 0.191692 0.559864 0.065471
v 0.025011 0.559864 0.065471
v -0.092850 0.559864 -0.121603
v -0.092850 0.559864 -0.288284
v 0.025012 0.559864 -0.336931
v 0.128170 0.234314 -0.252788
v 0.156197 0.234314 -0.224761
v 0.156197 0.234314 -0.185126
v 0.128170 0.234314 -0.157099
v 0.088533 0.234314 -0.157099
v 0.060507 0.234314 -0.185126
v 0.060507 0.234314 -0.224761
v 0.088533 0.234314 -0.252788
v 0.108352 0.486063 -0.352671
v 0.219652 0.486063 -0.417106
v 0.314008 0.486063 -0.410600
v 0.377055 0.486063 -0.316244
v 0.399194 0.486063 -0.204943
v 0.377055 0.486063 -0.093643
v 0.314008 0.486063 0.000713
v 0.219652 0.486063 0.120300
v 0.108352 0.486063 0.229012
v -0.002949 0.486063 0.120301
v -0.097304 0.486063 0.000713
v -0.160352 0.486063 -0.093643
v -0.182490 0.486063 -0.204943
v -0.160352 0.486063 -0.316244
v -0.097304 0.486063 -0.410600
v -0.002949 0.486063 -0.417105
vn -0.5019 -0.0345 -0.8642
vn 0.0687 -0.0887 -0.9937
vn 0.8261 -0.1131 -0.5520
vn 0.9745 -0.1131 -0.1938
vn 0.9745 -0.1131 0.1938
vn 0.8261 -0.1131 0.5520
vn 0.7799 -0.1137 0.6154
vn 0.6929 -0.1363 0.7080
vn -0.6929 -0.1363 0.7081
vn -0.7799 -0.1137 0.6154
vn -0.8261 -0.1133 0.5520
vn -0.9745 -0.1132 0.1938
vn -0.9745 -0.1132 -0.1938
vn -0.8261 -0.1131 -0.5520
vn -0.0688 -0.0885 -0.9937
vn 0.5019 -0.0344 -0.8642
vn -0.0000 -1.0000 -0.0000
vn -0.5443 0.8389 -0.0000
vn -0.1204 0.9496 -0.2894
vn 0.2129 0.9584 -0.1903
vn 0.3512 0.9315 0.0947
vn 0.3778 0.8747 0.3036
vn -0.0000 1.0000 -0.0000
vn 0.1204 0.9496 -0.2894
vn -0.2129 0.9584 -0.1903
vn -0.3512 0.9315 0.0947
vn -0.3778 0.8747 0.3036
vn -0.5476 0.7623 0.3450
vn -0.0000 0.8389 0.5443
vn 0.5476 0.7623 0.3450
vn 0.5443 0.8389 -0.0000
vn 0.1715 0.8933 -0.4155
vn -0.0000 0.8389 -0.5443
vn -0.1715 0.8933 -0.4155
vn -0.5521 0.7478 -0.3689
vn -0.6512 0.7478 -0.1295
vn -0.6512 0.7478 0.1295
vn -0.5521 0.7478 0.3689
vn -0.5886 0.6616 0.4645
vn -0.5134 0.6799 0.5237
vn 0.5134 0.6799 0.5237
vn 0.5886 0.6616 0.4645
vn 0.5521 0.7478 0.3689
vn 0.6512 0.7478 0.1295
vn 0.6512 0.7478 -0.1295
vn 0.5521 0.7478 -0.3689
vn 0.0425 0.7884 -0.6137
vn -0.3812 0.6532 -0.6543
vn 0.3812 0.6532 -0.6543
vn -0.0425 0.7884 -0.6137
vn 0.4679 -0.3575 -0.8082
vn -0.6085 -0.6815 -0.4066
vn -0.7177 -0.6815 -0.1428
vn -0.5102 -0.6901 0.5133
vn -0.5641 -0.6954 0.4451
vn -0.3726 -0.7621 0.5295
vn 0.4838 -0.7216 0.4953
vn 0.5133 -0.6901 0.5102
vn 0.6085 -0.6815 0.4066
vn 0.7237 -0.6901 -0.0022
vn 0.7177 -0.6815 -0.1428
vn 0.5101 -0.6901 -0.5133
vn 0.0570 -0.5601 -0.8264
vn -0.5408 -0.3564 -0.7619
vn -0.5134 -0.6901 -0.5102
vn -0.4679 -0.3575 -0.8082
vn -0.5101 -0.6901 -0.5133
vn -0.0570 -0.5601 -0.8264
vn -0.7237 -0.6901 -0.0022
vn -0.7177 -0.6815 0.1428
vn -0.5133 -0.6901 0.5102
vn -0.6085 -0.6815 0.4066
vn 0.3726 -0.7621 0.5295
vn -0.4838 -0.7216 0.4953
vn 0.5102 -0.6901 0.5133
vn 0.5641 -0.6955 0.4451
vn 0.7237 -0.6901 0.0022
vn 0.7177 -0.6815 0.1428
vn 0.5134 -0.6900 -0.5102
vn 0.6085 -0.6815 -0.4066
vn 0.5408 -0.3564 -0.7619
vn -0.7237 -0.6901 0.0022
vt 0.254740 0.602238
vt 0.249443 0.596750
vt 0.332793 0.525963
vt 0.337689 0.531870
vt 0.389160 0.489840
vt 0.393855 0.495869
vt 0.529822 0.821211
vt 0.522388 0.818190
vt 0.560352 0.740168
vt 0.567646 0.743476
vt 0.605802 0.657809
vt 0.612929 0.661420
vt 0.651819 0.583652
vt 0.658777 0.587536
vt 0.691399 0.528986
vt 0.698211 0.533070
vt 0.741735 0.462398
vt 0.748374 0.466707
vt 0.788000 0.406287
vt 0.794301 0.411089
vt 0.555511 0.005561
vt 0.561198 0.000000
vt 0.642604 0.097896
vt 0.636459 0.102857
vt 0.722173 0.196809
vt 0.715747 0.201423
vt 0.780986 0.271417
vt 0.774343 0.275756
vt 0.832143 0.343620
vt 0.825312 0.347695
vt 0.867856 0.402429
vt 0.860894 0.406287
vt 0.837081 0.423612
vt 0.836337 0.416125
vt 0.926066 0.406287
vt 0.926480 0.413810
vt 0.999870 0.411728
vt 1.000000 0.419235
vt 0.464069 0.767873
vt 0.459955 0.774282
vt 0.393855 0.740550
vt 0.398489 0.734464
vt 0.227687 0.858675
vt 0.219124 0.860714
vt 0.215477 0.853208
vt 0.207875 0.849004
vt 0.210988 0.841292
vt 0.208801 0.833307
vt 0.216851 0.829906
vt 0.221359 0.822818
vt 0.229631 0.825721
vt 0.238194 0.823682
vt 0.241841 0.831188
vt 0.249443 0.835392
vt 0.246330 0.843104
vt 0.248517 0.851089
vt 0.240467 0.854490
vt 0.235959 0.861578
vt 0.450182 0.403010
vt 0.340061 0.402506
vt 0.356949 0.325709
vt 0.441419 0.305852
vt 0.228003 0.152767
vt 0.293571 0.115872
vt 0.267063 0.238088
vt 0.171099 0.156262
vt 0.190494 0.077075
vt 0.099846 0.274976
vt 0.089136 0.173729
vt 0.085821 0.410917
vt 0.048870 0.349216
vt 0.359420 0.272584
vt 0.231263 0.394793
vt 0.397508 0.210635
vt 0.152806 0.443978
vt 0.271345 0.474096
vt 0.003057 0.489840
vt 0.013918 0.239390
vt 0.086125 0.071086
vt 0.264961 0.000000
vt 0.358085 0.151290
vt 0.522388 0.234705
vt 0.504257 0.325598
vt 0.368394 0.455155
vt 0.699652 0.091451
vt 0.139319 0.489839
vt 0.000000 0.362818
vt 0.032049 0.148498
vt 0.167912 0.018941
vt 0.328003 0.050039
vt 0.467321 0.177061
vt 0.464069 0.522382
vt 0.966486 0.652753
vt 0.836337 0.851853
vt 0.931515 0.678894
vt 0.931515 0.877154
vt 0.557179 0.382661
vt 0.532454 0.394950
vt 0.527510 0.389496
vt 0.536542 0.357778
vt 0.249443 0.489840
vt 0.248208 0.804235
vt 0.213693 0.802465
vt 0.147315 0.573140
vt 0.059421 0.666028
vt 0.187945 0.823970
vt 0.000000 0.739826
vt 0.817981 0.785382
vt 0.836337 0.807668
vt 0.832419 0.815001
vt 0.801754 0.813149
vt 0.039721 1.000000
vt 0.186046 0.856153
vt 0.389087 0.780647
vt 0.393855 0.811207
vt 0.387242 0.816331
vt 1.000000 0.650471
vt 0.997211 0.677781
vt 0.989685 0.678805
vt 0.980864 0.678894
vt 0.535154 0.399701
vt 0.522388 0.382814
vt 0.828423 0.821211
vt 0.209110 0.880161
vt 0.456315 0.489840
vt 0.460283 0.491495
vt 0.572590 0.405903
vt 0.539970 0.406287
s 0
usemtl Diamond_green.002
f 57/1/1 26/2/1 25/3/1 58/4/1
f 58/4/2 25/3/2 27/5/2 59/6/2
f 59/7/3 27/8/3 28/9/3 60/10/3
f 60/10/4 28/9/4 29/11/4 61/12/4
f 61/12/5 29/11/5 30/13/5 62/14/5
f 62/14/6 30/13/6 31/15/6 63/16/6
f 63/16/7 31/15/7 32/17/7 64/18/7
f 64/18/8 32/17/8 33/19/8 65/20/8
f 65/21/9 33/22/9 34/23/9 66/24/9
f 66/24/10 34/23/10 35/25/10 67/26/10
f 67/26/11 35/25/11 36/27/11 68/28/11
f 68/28/12 36/27/12 37/29/12 69/30/12
f 69/30/13 37/29/13 38/31/13 70/32/13
f 70/33/14 38/34/14 39/35/14 71/36/14
f 71/36/15 39/35/15 40/37/15 72/38/15
f 72/39/16 40/40/16 26/41/16 57/42/16
f 1/43/17 3/44/17 4/45/17 6/46/17 7/47/17 9/48/17 10/49/17 12/50/17 13/51/17 15/52/17 16/53/17 18/54/17 19/55/17 21/56/17 22/57/17 24/58/17
f 37/59/18 46/60/18 20/61/18 47/62/18
f 5/63/19 41/64/19 2/65/19
f 8/66/20 42/67/20 5/63/20
f 11/68/21 43/69/21 8/66/21
f 14/70/22 44/71/22 11/68/22
f 23/72/23 20/61/23 17/73/23 14/70/23 11/68/23 8/66/23 5/63/23 2/65/23
f 48/74/24 23/72/24 2/65/24
f 47/62/25 20/61/25 23/72/25
f 20/61/26 46/60/26 17/73/26
f 17/73/27 45/75/27 14/70/27
f 35/76/28 45/75/28 17/73/28 46/60/28
f 33/77/29 44/71/29 14/70/29 45/75/29
f 31/78/30 43/69/30 11/68/30 44/71/30
f 29/79/31 42/67/31 8/66/31 43/69/31
f 27/80/32 41/64/32 5/63/32 42/67/32
f 26/81/33 48/74/33 2/65/33 41/64/33
f 39/82/34 47/62/34 23/72/34 48/74/34
f 38/83/35 47/62/35 39/82/35
f 38/83/36 37/59/36 47/62/36
f 36/84/37 46/60/37 37/59/37
f 36/84/38 35/76/38 46/60/38
f 34/23/39 45/85/39 35/25/39
f 34/86/40 33/77/40 45/75/40
f 32/87/41 44/71/41 33/77/41
f 32/87/42 31/78/42 44/71/42
f 30/88/43 43/69/43 31/78/43
f 30/88/44 29/79/44 43/69/44
f 28/89/45 42/67/45 29/79/45
f 28/89/46 27/80/46 42/67/46
f 25/90/47 41/64/47 27/80/47
f 25/90/48 26/81/48 41/64/48
f 40/91/49 48/74/49 26/81/49
f 40/91/50 39/82/50 48/74/50
f 56/92/51 72/39/51 57/42/51
f 55/93/52 70/33/52 71/36/52
f 70/94/53 55/95/53 69/96/53
f 67/26/54 54/97/54 18/98/54 16/99/54
f 53/100/55 66/24/55 67/26/55
f 65/101/56 53/102/56 15/52/56 13/51/56
f 52/103/57 64/104/57 65/101/57
f 63/105/58 52/103/58 12/50/58 10/49/58
f 51/106/59 62/107/59 63/105/59
f 61/12/60 51/108/60 9/109/60 7/110/60
f 50/111/61 60/10/61 61/12/61
f 59/112/62 50/113/62 6/46/62 4/45/62
f 49/114/63 58/4/63 59/6/63
f 57/1/64 49/114/64 3/115/64 1/116/64
f 71/36/65 56/117/65 24/118/65 22/119/65
f 58/4/66 49/114/66 57/1/66
f 55/93/67 71/36/67 22/119/67 21/120/67
f 72/38/68 56/117/68 71/36/68
f 54/97/69 69/30/69 19/121/69 18/98/69
f 54/97/70 68/28/70 69/30/70
f 53/100/71 67/26/71 16/99/71 15/122/71
f 68/28/72 54/97/72 67/26/72
f 52/103/73 65/101/73 13/51/73 12/50/73
f 66/24/74 53/100/74 65/21/74
f 51/106/75 63/105/75 10/49/75 9/48/75
f 64/104/76 52/103/76 63/105/76
f 50/111/77 61/12/77 7/110/77 6/123/77
f 62/14/78 51/108/78 61/12/78
f 49/124/79 59/112/79 4/45/79 3/44/79
f 60/10/80 50/111/80 59/7/80
f 56/92/81 57/42/81 1/125/81 24/126/81
f 69/30/82 55/127/82 21/128/82 19/121/82
