# Blender 4.0.1
# www.blender.org
mtllib prism3.mtl
o leftWall
v -1.020000 1.590000 -1.040000
v -1.020000 1.590000 0.990000
v -1.010000 0.000000 0.990000
v -0.990000 -0.000000 -1.040000
vn 0.9999 0.0135 0.0057
vn 1.0000 0.0063 -0.0000
vn 0.9999 0.0116 0.0042
vn 0.9998 0.0189 0.0098
vt 0.000000 1.000000
s 1
usemtl leftWall
f 1/1/1 2/1/2 3/1/3
f 4/1/4 1/1/1 3/1/3
o 20255_Triangular_Prism_V1
v -0.001973 0.717755 0.549161
v 0.354028 1.273002 0.315797
v -0.345575 1.279598 0.313025
v 0.354028 0.987116 -0.364417
v -0.345575 0.993712 -0.367189
v -0.001973 0.431869 -0.131052
vn -0.0000 0.3875 0.9219
vn 0.0102 0.9218 -0.3874
vn 0.8609 -0.4691 0.1972
vn -0.8711 -0.4528 0.1903
vn -0.0000 -0.3875 -0.9219
vt 0.416700 0.000000
vt 0.083300 0.000000
vt -0.250000 0.000000
vt 0.083300 1.000000
vt -0.250000 1.000000
vt 0.416700 1.000000
vt 0.750000 0.000000
vt 0.750000 1.000000
vt 0.333300 1.000000
s 1
f 5/2/5 6/3/5 7/4/5
f 7/4/6 6/3/6 8/5/6 9/6/6
f 6/3/7 5/2/7 10/7/7 8/5/7
f 5/2/8 7/8/8 9/9/8 10/7/8
f 10/7/9 9/9/9 8/10/9
o rightWall
v 1.000000 1.590000 0.990000
v 1.000000 1.590000 -1.040000
v 1.000000 -0.000000 -1.040000
v 1.000000 0.000000 0.990000
vn -1.0000 -0.0000 -0.0000
vt 0.000000 1.000000
s 1
usemtl rightWall
f 11/11/10 12/11/10 13/11/10
f 14/11/10 11/11/10 13/11/10
o backWall
v 1.000000 1.590000 -1.040000
v -1.020000 1.590000 -1.040000
v -0.990000 -0.000000 -1.040000
v 1.000000 -0.000000 -1.040000
vn -0.0000 -0.0000 1.0000
vt 0.000000 1.000000
s 1
usemtl backWall
f 15/12/11 16/12/11 17/12/11
f 18/12/11 15/12/11 17/12/11
o ceiling
v 1.000000 1.590000 -1.040000
v 1.000000 1.590000 0.990000
v -1.020000 1.590000 0.990000
v -1.020000 1.590000 -1.040000
vn -0.0000 -1.0000 -0.0000
vt 0.000000 1.000000
s 1
usemtl ceiling
f 19/13/12 20/13/12 21/13/12
f 22/13/12 19/13/12 21/13/12
o floor
v 1.000000 -0.000000 -1.040000
v -0.990000 -0.000000 -1.040000
v -1.010000 0.000000 0.990000
v 1.000000 0.000000 0.990000
vn -0.0000 1.0000 -0.0000
vt 0.000000 1.000000
s 1
usemtl floor
f 23/14/13 24/14/13 25/14/13
f 26/14/13 23/14/13 25/14/13
