# Blender 4.0.1
# www.blender.org
mtllib prism3.mtl
o 20255_Triangular_Prism_V1
v -0.001973 0.717755 0.549161
v 0.354028 1.273002 0.315797
v -0.345575 1.279598 0.313025
v 0.354028 0.987116 -0.364417
v -0.345575 0.993712 -0.367189
v -0.001973 0.431869 -0.131052
vn -0.0000 0.3875 0.9219
vn 0.0102 0.9218 -0.3874
vn 0.8609 -0.4691 0.1972
vn -0.8711 -0.4528 0.1903
vn -0.0000 -0.3875 -0.9219
vt 0.416700 0.000000
vt 0.083300 0.000000
vt -0.250000 0.000000
vt 0.083300 1.000000
vt -0.250000 1.000000
vt 0.416700 1.000000
vt 0.750000 0.000000
vt 0.750000 1.000000
vt 0.333300 1.000000
s 1
f 1/1/1 2/2/1 3/3/1
f 3/3/2 2/2/2 4/4/2 5/5/2
f 2/2/3 1/1/3 6/6/3 4/4/3
f 1/1/4 3/7/4 5/8/4 6/6/4
f 6/6/5 5/8/5 4/9/5
