# Blender 4.0.1
# www.blender.org
mtllib prism3.mtl
o 20255_Triangular_Prism_V1
v -0.016690 0.760386 0.207418
v 0.327591 1.369455 0.207418
v -0.372019 1.363073 0.207418
v 0.327591 1.369455 -0.530431
v -0.372019 1.363073 -0.530431
v -0.016690 0.760386 -0.530431
vn -0.0000 -0.0000 1.0000
vn -0.0091 1.0000 -0.0000
vn 0.8705 -0.4921 -0.0000
vn -0.8614 -0.5079 -0.0000
vn -0.0000 -0.0000 -1.0000
vt 0.416700 0.000000
vt 0.083300 0.000000
vt -0.250000 0.000000
vt 0.083300 1.000000
vt -0.250000 1.000000
vt 0.416700 1.000000
vt 0.750000 0.000000
vt 0.750000 1.000000
vt 0.333300 1.000000
s 1
f 1/1/1 2/2/1 3/3/1
f 3/3/2 2/2/2 4/4/2 5/5/2
f 2/2/3 1/1/3 6/6/3 4/4/3
f 1/1/4 3/7/4 5/8/4 6/6/4
f 6/6/5 5/8/5 4/9/5
