# Blender 4.0.1
# www.blender.org
mtllib backWall.mtl
o leftWall
v -2.039122 2.522729 -2.980878
v -2.039122 2.522729 2.930878
v -2.010000 -2.107661 2.930878
v -1.951756 -2.107662 -2.980878
vn 0.9999 0.0135 0.0057
vn 1.0000 0.0063 -0.0000
vn 0.9999 0.0116 0.0042
vn 0.9998 0.0189 0.0098
vt 0.000000 1.000000
s 1
usemtl leftWall
f 1/1/1 2/1/2 3/1/3
f 4/1/4 1/1/1 3/1/3
o rightWall
v 1.981650 2.301972 2.668115
v 1.981650 2.301971 -2.717198
v 1.981650 -1.916082 -2.717198
v 1.981650 -1.916081 2.668115
vn -1.0000 -0.0000 -0.0000
vt 0.000000 1.000000
s 1
usemtl rightWall
f 5/2/5 6/2/5 7/2/5
f 8/2/5 5/2/5 7/2/5
o backWall
v 2.235441 2.870295 -3.049967
v -2.268389 2.870295 -3.049967
v -2.201501 -0.674799 -3.049967
v 2.235441 -0.674799 -3.049967
vn -0.0000 -0.0000 1.0000
vt 0.000000 1.000000
s 1
usemtl backWall.001
f 9/3/6 10/3/6 11/3/6
f 12/3/6 9/3/6 11/3/6
o ceiling
v 2.907229 1.542534 -2.956671
v 2.907229 1.542534 2.906671
v -2.927229 1.542534 2.906671
v -2.927229 1.542534 -2.956671
vn -0.0000 -1.0000 -0.0000
vt 0.000000 1.000000
s 1
usemtl ceiling.001
f 13/4/7 14/4/7 15/4/7
f 16/4/7 13/4/7 15/4/7
o floor
v 4.237471 -0.587467 -4.406969
v -4.195096 -0.587467 -4.406969
v -4.279845 -0.587466 4.195096
v 4.237471 -0.587466 4.195096
vn -0.0000 1.0000 -0.0000
vt 0.000000 1.000000
s 1
usemtl floor
f 17/5/8 18/5/8 19/5/8
f 20/5/8 17/5/8 19/5/8
o Cylinder.014_Cylinder.023
v -0.024022 -0.518489 -0.017762
v -0.022736 0.067498 -0.214963
v -0.009214 -0.518521 -0.022424
v -0.002041 -0.518537 -0.008657
v 0.138687 0.067144 -0.148099
v 0.011727 -0.518567 -0.001484
v 0.007064 -0.518557 0.013324
v 0.205550 0.066997 0.013324
v 0.011727 -0.518567 0.028131
v -0.002041 -0.518537 0.035305
v 0.138687 0.067144 0.174746
v -0.009214 -0.518521 0.049072
v -0.024022 -0.518489 0.044409
v -0.022736 0.067498 0.241610
v -0.038829 -0.518456 0.049072
v -0.046002 -0.518441 0.035305
v -0.184158 0.067852 0.174747
v -0.059769 -0.518410 0.028131
v -0.055107 -0.518421 0.013324
v -0.251021 0.067999 0.013323
v -0.059769 -0.518410 -0.001484
v -0.046002 -0.518441 -0.008657
v -0.184158 0.067852 -0.148100
v -0.038829 -0.518456 -0.022424
v 0.148082 -0.074893 -0.399820
v -0.023047 -0.074518 -0.433859
v 0.293158 -0.075212 -0.302882
v 0.390095 -0.075424 -0.157806
v 0.424134 -0.075499 0.013324
v 0.390095 -0.075424 0.184453
v 0.293158 -0.075211 0.329529
v 0.148082 -0.074893 0.426467
v -0.023047 -0.074517 0.460506
v -0.194176 -0.074142 0.426467
v -0.339252 -0.073824 0.329529
v -0.436189 -0.073611 0.184453
v -0.470229 -0.073536 0.013323
v -0.436189 -0.073611 -0.157806
v -0.339252 -0.073824 -0.302882
v -0.194176 -0.074142 -0.399820
v 0.104838 0.024106 -0.294895
v 0.285388 0.023710 -0.114345
v 0.285388 0.023710 0.140992
v 0.104838 0.024106 0.321542
v -0.150498 0.024667 0.321542
v -0.331048 0.025062 0.140992
v -0.331048 0.025062 -0.114345
v -0.150498 0.024666 -0.294895
v 0.006434 -0.474387 -0.059969
v 0.049368 -0.474482 -0.017035
v 0.049368 -0.474482 0.043683
v 0.006434 -0.474387 0.086617
v -0.054284 -0.474254 0.086617
v -0.097217 -0.474160 0.043683
v -0.097217 -0.474160 -0.017035
v -0.054284 -0.474254 -0.059969
v -0.023078 -0.088670 -0.432216
v 0.147422 -0.089044 -0.398301
v 0.291965 -0.089361 -0.301720
v 0.388545 -0.089573 -0.157177
v 0.422460 -0.089647 0.013324
v 0.388545 -0.089573 0.183824
v 0.291965 -0.089361 0.328367
v 0.147422 -0.089043 0.424948
v -0.023078 -0.088670 0.458863
v -0.193578 -0.088296 0.424948
v -0.338121 -0.087978 0.328367
v -0.434702 -0.087766 0.183824
v -0.468616 -0.087692 0.013323
v -0.434702 -0.087766 -0.157177
v -0.338121 -0.087978 -0.301720
v -0.193578 -0.088296 -0.398301
vn 0.1936 -0.1136 -0.9745
vn 0.5518 -0.1144 -0.8261
vn 0.8259 -0.1150 -0.5520
vn 0.9742 -0.1153 -0.1938
vn 0.9742 -0.1153 0.1938
vn 0.8259 -0.1150 0.5520
vn 0.5517 -0.1144 0.8261
vn 0.1936 -0.1136 0.9745
vn -0.1941 -0.1127 0.9745
vn -0.5523 -0.1119 0.8261
vn -0.8264 -0.1113 0.5520
vn -0.9747 -0.1110 0.1938
vn -0.9747 -0.1110 -0.1938
vn -0.8264 -0.1113 -0.5520
vn -0.5522 -0.1120 -0.8261
vn -0.1941 -0.1128 -0.9745
vn -0.0022 -1.0000 -0.0000
vn -0.5424 0.8401 -0.0000
vn 0.1289 0.9432 -0.3062
vn 0.3083 0.9428 -0.1269
vn 0.3083 0.9428 0.1269
vn 0.1289 0.9432 0.3063
vn 0.0022 1.0000 -0.0000
vn -0.1248 0.9437 -0.3063
vn -0.3042 0.9441 -0.1269
vn -0.3042 0.9441 0.1269
vn -0.1248 0.9437 0.3063
vn -0.3830 0.8398 0.3849
vn 0.0018 0.8389 0.5443
vn 0.3867 0.8381 0.3849
vn 0.5461 0.8377 -0.0000
vn 0.3867 0.8381 -0.3849
vn 0.0018 0.8389 -0.5443
vn -0.3830 0.8398 -0.3849
vn -0.5504 0.7490 -0.3689
vn -0.6496 0.7492 -0.1295
vn -0.6496 0.7492 0.1295
vn -0.5504 0.7490 0.3689
vn -0.3672 0.7486 0.5521
vn -0.1279 0.7480 0.6512
vn 0.1312 0.7475 0.6512
vn 0.3705 0.7470 0.5521
vn 0.5537 0.7466 0.3689
vn 0.6528 0.7463 0.1295
vn 0.6528 0.7463 -0.1295
vn 0.5537 0.7466 -0.3689
vn 0.3705 0.7470 -0.5521
vn 0.1312 0.7475 -0.6512
vn -0.1279 0.7480 -0.6512
vn -0.3672 0.7486 -0.5521
vn -0.1443 -0.6812 -0.7177
vn -0.6100 -0.6802 -0.4066
vn -0.7192 -0.6800 -0.1428
vn -0.5117 -0.6890 0.5133
vn -0.4081 -0.6806 0.6085
vn 0.0007 -0.6901 0.7237
vn 0.1413 -0.6818 0.7177
vn 0.5118 -0.6912 0.5102
vn 0.6070 -0.6829 0.4066
vn 0.7222 -0.6917 -0.0022
vn 0.7162 -0.6831 -0.1428
vn 0.5087 -0.6912 -0.5133
vn 0.4051 -0.6824 -0.6085
vn -0.0037 -0.6901 -0.7237
vn -0.5148 -0.6890 -0.5102
vn 0.1413 -0.6818 -0.7177
vn -0.5117 -0.6890 -0.5133
vn -0.4081 -0.6806 -0.6085
vn -0.7252 -0.6885 -0.0022
vn -0.7192 -0.6800 0.1428
vn -0.5148 -0.6890 0.5102
vn -0.6100 -0.6802 0.4066
vn -0.0037 -0.6901 0.7237
vn -0.1443 -0.6812 0.7177
vn 0.5087 -0.6912 0.5133
vn 0.4051 -0.6824 0.6085
vn 0.7222 -0.6917 0.0022
vn 0.7162 -0.6831 0.1428
vn 0.5118 -0.6912 -0.5102
vn 0.6070 -0.6829 -0.4066
vn 0.0007 -0.6901 -0.7237
vn -0.7252 -0.6885 0.0022
vt 0.587689 0.918838
vt 0.584140 0.925227
vt 0.511271 0.883976
vt 0.515087 0.877739
vt 0.457555 0.848497
vt 0.461568 0.842390
vt 0.988436 0.719038
vt 0.995851 0.718572
vt 1.000000 0.800839
vt 0.992570 0.801003
vt 1.000000 0.889884
vt 0.992570 0.889721
vt 0.995851 0.972151
vt 0.988436 0.971685
vt 0.462631 0.649142
vt 0.457555 0.643846
vt 0.503831 0.599451
vt 0.508737 0.604911
vt 0.567878 0.545992
vt 0.572548 0.551648
vt 0.639944 0.491608
vt 0.644350 0.497464
vt 0.709060 0.444579
vt 0.713211 0.450607
vt 0.764701 0.412063
vt 0.768648 0.418211
vt 0.004013 0.605269
vt 0.000000 0.599162
vt 0.053717 0.563683
vt 0.057533 0.569920
vt 0.126586 0.522433
vt 0.130134 0.528821
vt 0.207513 0.481690
vt 0.210764 0.488229
vt 0.284179 0.447659
vt 0.287148 0.454323
vt 0.744703 0.993337
vt 0.741734 1.000000
vt 0.665068 0.965969
vt 0.668319 0.959431
vt 0.666694 0.226102
vt 0.667572 0.233978
vt 0.659799 0.236198
vt 0.654728 0.242374
vt 0.647627 0.238566
vt 0.639577 0.239426
vt 0.637308 0.231821
vt 0.630995 0.226859
vt 0.634887 0.219912
vt 0.634008 0.212036
vt 0.641782 0.209816
vt 0.646853 0.203640
vt 0.653954 0.207448
vt 0.662004 0.206588
vt 0.664273 0.214193
vt 0.670586 0.219155
vt 0.183271 0.447659
vt 0.132097 0.365392
vt 0.205546 0.338095
vt 0.262727 0.390814
vt 0.327788 0.159104
vt 0.399453 0.190614
vt 0.345568 0.246558
vt 0.252009 0.109565
vt 0.325458 0.082267
vt 0.162621 0.126961
vt 0.194828 0.056845
vt 0.111987 0.201101
vt 0.084086 0.129241
vt 0.294934 0.320699
vt 0.129767 0.288556
vt 0.373470 0.318419
vt 0.058102 0.257045
vt 0.034829 0.350619
vt 0.000000 0.179307
vt 0.099185 0.034076
vt 0.274284 0.000000
vt 0.422726 0.097040
vt 0.457555 0.268352
vt 0.358370 0.413583
vt 0.274284 0.447659
vt 0.099185 0.413583
vt 0.000000 0.268352
vt 0.034829 0.097040
vt 0.183271 0.000000
vt 0.358369 0.034076
vt 0.457555 0.179307
vt 0.422726 0.350619
vt 0.736781 0.749573
vt 0.279226 0.698086
vt 0.521675 0.033951
vt 0.642717 0.183299
vt 0.616383 0.200514
vt 0.457555 0.096684
vt 0.762720 0.683412
vt 0.768648 0.709798
vt 0.762338 0.714689
vt 0.737674 0.701404
vt 0.457555 0.349330
vt 0.610204 0.230905
vt 0.627800 0.256670
vt 0.521675 0.412063
vt 0.769783 0.867855
vt 0.744808 0.856333
vt 0.744703 0.848457
vt 0.770519 0.837463
vt 0.779906 0.412063
vt 0.658863 0.262715
vt 0.685197 0.245500
vt 0.844026 0.349330
vt 0.709497 0.735028
vt 0.731396 0.718572
vt 0.738601 0.722085
vt 0.844026 0.096684
vt 0.691376 0.215109
vt 0.673780 0.189344
vt 0.251942 0.712632
vt 0.281047 0.725574
vt 0.273841 0.729087
vt 0.605451 0.000000
vt 0.756432 0.718573
vt 0.745167 0.841509
vt 0.744703 0.725667
vt 0.287148 0.721992
s 0
usemtl Diamond_white
f 77/6/9 46/7/9 45/8/9 78/9/9
f 78/9/10 45/8/10 47/10/10 79/11/10
f 79/12/11 47/13/11 48/14/11 80/15/11
f 80/15/12 48/14/12 49/16/12 81/17/12
f 81/17/13 49/16/13 50/18/13 82/19/13
f 82/20/14 50/21/14 51/22/14 83/23/14
f 83/23/15 51/22/15 52/24/15 84/25/15
f 84/25/16 52/24/16 53/26/16 85/27/16
f 85/27/17 53/26/17 54/28/17 86/29/17
f 86/29/18 54/28/18 55/30/18 87/31/18
f 87/32/19 55/33/19 56/34/19 88/35/19
f 88/35/20 56/34/20 57/36/20 89/37/20
f 89/37/21 57/36/21 58/38/21 90/39/21
f 90/39/22 58/38/22 59/40/22 91/41/22
f 91/42/23 59/43/23 60/44/23 92/45/23
f 92/45/24 60/44/24 46/7/24 77/6/24
f 21/46/25 23/47/25 24/48/25 26/49/25 27/50/25 29/51/25 30/52/25 32/53/25 33/54/25 35/55/25 36/56/25 38/57/25 39/58/25 41/59/25 42/60/25 44/61/25
f 57/62/26 66/63/26 40/64/26 67/65/26
f 25/66/27 61/67/27 22/68/27
f 28/69/28 62/70/28 25/66/28
f 31/71/29 63/72/29 28/69/29
f 34/73/30 64/74/30 31/71/30
f 43/75/31 40/64/31 37/76/31 34/73/31 31/71/31 28/69/31 25/66/31 22/68/31
f 68/77/32 43/75/32 22/68/32
f 67/65/33 40/64/33 43/75/33
f 40/64/34 66/63/34 37/76/34
f 37/76/35 65/78/35 34/73/35
f 55/79/36 65/78/36 37/76/36 66/63/36
f 53/80/37 64/74/37 34/73/37 65/78/37
f 51/81/38 63/72/38 31/71/38 64/74/38
f 49/82/39 62/70/39 28/69/39 63/72/39
f 47/83/40 61/67/40 25/66/40 62/70/40
f 46/84/41 68/77/41 22/68/41 61/67/41
f 59/85/42 67/65/42 43/75/42 68/77/42
f 58/86/43 67/65/43 59/85/43
f 58/86/44 57/62/44 67/65/44
f 56/87/45 66/63/45 57/62/45
f 56/87/46 55/79/46 66/63/46
f 54/88/47 65/78/47 55/79/47
f 54/88/48 53/80/48 65/78/48
f 52/89/49 64/74/49 53/80/49
f 52/89/50 51/81/50 64/74/50
f 50/90/51 63/72/51 51/81/51
f 50/90/52 49/82/52 63/72/52
f 48/91/53 62/70/53 49/82/53
f 48/91/54 47/83/54 62/70/54
f 45/92/55 61/67/55 47/83/55
f 45/92/56 46/84/56 61/67/56
f 60/93/57 68/77/57 46/84/57
f 60/93/58 59/85/58 68/77/58
f 76/94/59 92/45/59 77/6/59
f 75/95/60 90/39/60 91/41/60
f 90/39/61 75/95/61 89/37/61
f 87/96/62 74/97/62 38/57/62 36/56/62
f 73/98/63 86/99/63 87/96/63
f 85/27/64 73/100/64 35/101/64 33/102/64
f 72/103/65 84/25/65 85/27/65
f 83/104/66 72/105/66 32/53/66 30/52/66
f 71/106/67 82/107/67 83/104/67
f 81/17/68 71/108/68 29/109/68 27/110/68
f 70/111/69 80/15/69 81/17/69
f 79/112/70 70/113/70 26/49/70 24/48/70
f 69/114/71 78/115/71 79/112/71
f 77/6/72 69/116/72 23/117/72 21/118/72
f 91/119/73 76/120/73 44/61/73 42/60/73
f 78/9/74 69/116/74 77/6/74
f 75/121/75 91/119/75 42/60/75 41/59/75
f 92/45/76 76/94/76 91/42/76
f 74/122/77 89/37/77 39/123/77 38/124/77
f 74/122/78 88/35/78 89/37/78
f 73/98/79 87/96/79 36/56/79 35/55/79
f 88/125/80 74/97/80 87/96/80
f 72/103/81 85/27/81 33/102/81 32/126/81
f 86/29/82 73/100/82 85/27/82
f 71/106/83 83/104/83 30/52/83 29/51/83
f 84/25/84 72/103/84 83/23/84
f 70/111/85 81/17/85 27/110/85 26/127/85
f 82/19/86 71/108/86 81/17/86
f 69/114/87 79/112/87 24/48/87 23/47/87
f 80/15/88 70/111/88 79/12/88
f 76/94/89 77/6/89 21/118/89 44/128/89
f 89/37/90 75/95/90 41/129/90 39/123/90
