# Blender 4.0.1
# www.blender.org
mtllib rectangle.mtl
o Cube
v 0.595548 0.613267 -1.056253
v 0.595548 -1.116058 -1.056253
v 0.595548 0.613268 0.789362
v 0.595548 -0.776117 0.281670
v -0.112923 0.613267 -1.056253
v -0.112923 -1.116058 -1.056253
v -0.112923 0.613268 0.789362
v -0.112923 -0.776117 0.281670
v -0.112923 0.613268 -0.347781
vn -0.0000 1.0000 -0.0000
vn -0.0000 -0.3432 0.9393
vn -1.0000 -0.0000 -0.0000
vn -0.0000 -0.9692 0.2463
vn 1.0000 -0.0000 -0.0000
vn -0.0000 -0.0000 -1.0000
vt 0.625000 0.500000
vt 0.875000 0.500000
vt 0.875000 0.750000
vt 0.625000 0.750000
vt 0.375000 0.750000
vt 0.625000 1.000000
vt 0.375000 1.000000
vt 0.375000 0.000000
vt 0.625000 0.000000
vt 0.625000 0.250000
vt 0.375000 0.250000
vt 0.125000 0.500000
vt 0.375000 0.500000
vt 0.125000 0.750000
s 0
usemtl Material.004
f 1/1/1 5/2/1 7/3/1 3/4/1
f 4/5/2 3/4/2 7/6/2 8/7/2
f 8/8/3 7/9/3 5/10/3 6/11/3
f 6/12/4 2/13/4 4/5/4 8/14/4
f 2/13/5 1/1/5 3/4/5 4/5/5
f 6/11/6 5/10/6 1/1/6 2/13/6
l 7 9
